<?xml version="1.0" encoding="UTF-8" standalone="no"?><!DOCTYPE svg PUBLIC "-//W3C//DTD SVG 1.1//EN" "http://www.w3.org/Graphics/SVG/1.1/DTD/svg11.dtd"><svg width="100%" height="100%" viewBox="0 0 1142 771" version="1.1" xmlns="http://www.w3.org/2000/svg" xmlns:xlink="http://www.w3.org/1999/xlink" xml:space="preserve" xmlns:serif="http://www.serif.com/" style="fill-rule:evenodd;clip-rule:evenodd;stroke-linejoin:round;stroke-miterlimit:2;"><g id="logo_layer"><ellipse cx="355.853" cy="490.135" rx="24.39" ry="22.359" style="fill:#b02b10;"/><path d="M1140.55,580.099c0,-2.305 -1.871,-4.177 -4.177,-4.177l-1087.98,0c-2.305,0 -4.177,1.872 -4.177,4.177l0,8.354c0,2.305 1.872,4.177 4.177,4.177l1087.98,-0c2.306,-0 4.177,-1.872 4.177,-4.177l0,-8.354Z"/><path d="M190.443,381.376c-0,0 20.173,3.197 25.113,12.495c0,-0 95.958,-198.72 106.537,-221.22c10.579,-22.501 53.305,-141.886 -50.378,-98.957c0,-0 -72.641,23.188 -105.177,198.354c-0,0 13.428,-264.697 -43.929,-271.748c-57.357,-7.052 -133.911,111.665 -121.212,218.803c12.699,107.137 74.76,198.315 94.576,215.23c0,-0 -43.107,90.584 33.643,114.636c76.749,24.052 143.786,6.759 167.106,-15.198c23.319,-21.956 -12.819,-31.461 -52.572,-11.564c-40.501,20.272 -145.362,0.35 -119.922,-51.424l117.05,1.703c-0,0 -10.519,-126.47 -120.023,-69.487c0,-0 -177.037,-162.993 -56.307,-334.047c46.794,-66.3 56.612,-34.154 62.107,99.369c5.722,139.008 14.315,214.755 14.315,214.755c-0,-0 25.611,-8.24 33.041,-3.512c0,-0 28.15,-254.883 124.732,-277.751c-0,0 36.674,-8.74 -18.372,85.686c-55.045,94.425 -90.328,193.877 -90.328,193.877Zm-60.033,72.069l79.638,1.389c0,0 -38.187,-77.562 -79.638,-1.389Z"/><path d="M439.194,543.928c-0.515,-0 -0.976,-0.166 -1.381,-0.497c-0.405,-0.332 -0.607,-0.829 -0.607,-1.492l-0,-76.899c-0,-0.736 0.202,-1.234 0.607,-1.491c0.405,-0.258 0.866,-0.387 1.381,-0.387c0.516,-0 0.995,0.258 1.437,0.773c0.442,0.516 0.847,1.087 1.215,1.713c0.368,0.626 0.626,1.123 0.774,1.491l21.434,42.206l21.545,-42.206c0.221,-0.368 0.497,-0.865 0.829,-1.491c0.331,-0.626 0.736,-1.197 1.215,-1.713c0.479,-0.515 0.939,-0.773 1.381,-0.773c0.589,-0 1.068,0.129 1.436,0.387c0.369,0.257 0.553,0.755 0.553,1.491l-0,76.899c-0,0.663 -0.203,1.16 -0.608,1.492c-0.405,0.331 -0.865,0.497 -1.381,0.497c-0.516,-0 -0.976,-0.166 -1.381,-0.497c-0.405,-0.332 -0.608,-0.829 -0.608,-1.492l0,-69.054l-20.882,40.217c-0.368,0.737 -0.718,1.271 -1.049,1.602c-0.332,0.331 -0.682,0.497 -1.05,0.497c-0.295,0 -0.626,-0.166 -0.994,-0.497c-0.369,-0.331 -0.737,-0.865 -1.105,-1.602l-20.772,-40.217l0,69.054c0,0.663 -0.202,1.16 -0.607,1.492c-0.406,0.331 -0.866,0.497 -1.382,0.497Z" style="fill-rule:nonzero;"/><path d="M527.473,544.591c-4.345,-0 -8.194,-0.847 -11.545,-2.541c-3.352,-1.695 -5.985,-4.033 -7.9,-7.016c-1.915,-2.984 -2.873,-6.501 -2.873,-10.552l0,-13.811c0,-3.535 0.902,-6.795 2.707,-9.778c1.805,-2.983 4.199,-5.358 7.182,-7.126c2.983,-1.768 6.242,-2.652 9.778,-2.652c3.462,0 6.684,0.866 9.667,2.597c2.984,1.73 5.377,4.088 7.182,7.071c1.805,2.983 2.707,6.39 2.707,10.22c-0,2.651 -0.442,4.567 -1.326,5.745c-0.884,1.179 -2.007,1.897 -3.37,2.155c-1.362,0.257 -2.854,0.386 -4.474,0.386l-26.186,0l0,5.193c0,5.009 1.768,8.968 5.304,11.877c3.535,2.91 7.991,4.365 13.368,4.365c3.094,-0 5.451,-0.387 7.072,-1.16c1.62,-0.774 2.854,-1.529 3.701,-2.265c0.847,-0.737 1.602,-1.105 2.265,-1.105c0.368,-0 0.7,0.11 0.994,0.331c0.295,0.221 0.534,0.479 0.718,0.774c0.185,0.294 0.277,0.589 0.277,0.883c-0,0.663 -0.608,1.51 -1.823,2.542c-1.216,1.031 -2.965,1.933 -5.248,2.707c-2.284,0.773 -5.009,1.16 -8.177,1.16Zm-18.451,-29.169l24.86,0c2.725,0 4.511,-0.258 5.358,-0.773c0.847,-0.516 1.271,-1.621 1.271,-3.315c-0,-2.652 -0.645,-5.23 -1.934,-7.734c-1.289,-2.504 -3.112,-4.567 -5.469,-6.187c-2.357,-1.621 -5.119,-2.431 -8.286,-2.431c-2.947,0 -5.617,0.737 -8.011,2.21c-2.393,1.473 -4.29,3.388 -5.69,5.745c-1.399,2.357 -2.099,4.935 -2.099,7.734l0,4.751Z" style="fill-rule:nonzero;"/><path d="M573.657,570.113c-4.272,0 -8.01,-0.589 -11.214,-1.768c-3.205,-1.178 -5.709,-2.835 -7.514,-4.971c-1.804,-2.137 -2.706,-4.641 -2.706,-7.514c-0,-3.388 1.049,-6.058 3.148,-8.01c2.1,-1.952 4.401,-3.37 6.906,-4.254c-1.989,-0.589 -3.609,-1.454 -4.862,-2.596c-1.252,-1.142 -1.878,-2.891 -1.878,-5.248c0,-2.063 0.497,-3.665 1.492,-4.806c0.994,-1.142 2.302,-2.081 3.922,-2.818c-1.841,-1.62 -3.259,-3.627 -4.254,-6.021c-0.994,-2.394 -1.491,-5.027 -1.491,-7.9l-0,-4.972c-0,-3.536 0.736,-6.666 2.209,-9.391c1.474,-2.726 3.554,-4.862 6.243,-6.409c2.688,-1.547 5.8,-2.32 9.336,-2.32c2.725,0 5.193,0.46 7.403,1.381c2.209,0.921 4.125,2.228 5.745,3.922c1.031,-1.915 2.32,-3.517 3.867,-4.806c1.547,-1.289 3.02,-1.933 4.42,-1.933c0.81,-0 1.399,0.221 1.767,0.663c0.369,0.442 0.553,0.957 0.553,1.546c-0,0.663 -0.203,1.179 -0.608,1.547c-0.405,0.369 -0.865,0.553 -1.381,0.553c-0.958,-0 -2.044,0.331 -3.259,0.994c-1.216,0.663 -2.339,2.026 -3.37,4.088c0.957,1.326 1.657,2.873 2.099,4.641c0.442,1.767 0.663,3.609 0.663,5.524l-0,4.972c-0,3.462 -0.755,6.592 -2.265,9.391c-1.51,2.799 -3.628,4.991 -6.353,6.574c-2.725,1.584 -5.856,2.376 -9.391,2.376c-3.389,-0 -6.409,-0.774 -9.06,-2.321c-1.105,0.516 -2.118,1.161 -3.039,1.934c-0.92,0.773 -1.381,1.897 -1.381,3.37c0,1.841 0.847,3.167 2.541,3.977c1.695,0.811 3.867,1.363 6.519,1.658c2.652,0.294 5.451,0.589 8.397,0.884c2.946,0.294 5.745,0.847 8.397,1.657c2.652,0.81 4.825,2.099 6.519,3.867c1.694,1.768 2.541,4.309 2.541,7.623c0,3.168 -0.847,5.856 -2.541,8.066c-1.694,2.21 -4.07,3.904 -7.127,5.082c-3.056,1.179 -6.721,1.768 -10.993,1.768Zm-0,-3.535c5.451,-0 9.612,-1.032 12.485,-3.094c2.873,-2.062 4.309,-4.788 4.309,-8.176c-0,-2.652 -0.829,-4.659 -2.486,-6.022c-1.657,-1.362 -3.738,-2.32 -6.242,-2.872c-2.505,-0.553 -5.028,-0.921 -7.569,-1.105c-2.541,-0.184 -4.696,-0.387 -6.463,-0.608c-2.947,0.81 -5.617,2.044 -8.011,3.702c-2.393,1.657 -3.59,4.032 -3.59,7.126c-0,3.241 1.528,5.893 4.585,7.955c3.057,2.062 7.384,3.094 12.982,3.094Zm-0.552,-37.897c4.345,-0 7.752,-1.381 10.22,-4.144c2.467,-2.762 3.701,-6.205 3.701,-10.33l-0,-4.972c-0,-4.051 -1.234,-7.44 -3.701,-10.165c-2.468,-2.725 -5.911,-4.088 -10.331,-4.088c-4.419,0 -7.845,1.363 -10.275,4.088c-2.431,2.725 -3.646,6.114 -3.646,10.165l-0,4.861c-0,4.125 1.233,7.587 3.701,10.386c2.468,2.799 5.911,4.199 10.331,4.199Z" style="fill-rule:nonzero;"/><path d="M617.189,544.591c-4.272,-0 -7.9,-1.197 -10.883,-3.591c-2.983,-2.394 -4.475,-6.058 -4.475,-10.994c0,-3.903 1.087,-6.905 3.26,-9.004c2.172,-2.099 5.192,-3.554 9.059,-4.364c3.867,-0.811 8.342,-1.216 13.425,-1.216l6.187,0l-0,-3.093c-0,-2.799 -0.479,-5.525 -1.436,-8.176c-0.958,-2.652 -2.505,-4.843 -4.641,-6.574c-2.136,-1.731 -4.972,-2.597 -8.507,-2.597c-2.284,0 -4.199,0.24 -5.746,0.718c-1.547,0.479 -2.78,0.976 -3.701,1.492c-0.921,0.515 -1.602,0.773 -2.044,0.773c-0.589,0 -1.068,-0.276 -1.436,-0.828c-0.369,-0.553 -0.553,-1.013 -0.553,-1.381c0,-0.737 0.682,-1.455 2.044,-2.155c1.363,-0.7 3.094,-1.289 5.193,-1.768c2.099,-0.479 4.254,-0.718 6.464,-0.718c4.566,0 8.176,1.013 10.827,3.038c2.652,2.026 4.549,4.641 5.69,7.845c1.142,3.204 1.713,6.648 1.713,10.331l-0,29.61c-0,0.516 -0.166,0.976 -0.497,1.381c-0.332,0.405 -0.792,0.608 -1.381,0.608c-0.516,-0 -0.976,-0.203 -1.381,-0.608c-0.406,-0.405 -0.608,-0.865 -0.608,-1.381l-0,-5.745c-1.842,2.136 -4.143,4.069 -6.906,5.8c-2.762,1.731 -5.984,2.597 -9.667,2.597Zm-0.111,-3.867c2.799,-0 5.469,-0.682 8.011,-2.044c2.541,-1.363 4.622,-3.002 6.242,-4.917c1.621,-1.915 2.431,-3.646 2.431,-5.193l-0,-9.281l-6.077,0c-3.756,0 -7.31,0.221 -10.662,0.663c-3.351,0.442 -6.077,1.418 -8.176,2.928c-2.099,1.51 -3.149,3.886 -3.149,7.126c0,3.683 1.105,6.39 3.315,8.121c2.21,1.731 4.898,2.597 8.065,2.597Z" style="fill-rule:nonzero;"/><path d="M654.091,543.928c-0.515,-0 -0.957,-0.203 -1.325,-0.608c-0.369,-0.405 -0.553,-0.865 -0.553,-1.381l0,-48.283c0,-0.589 0.184,-1.049 0.553,-1.381c0.368,-0.331 0.81,-0.497 1.325,-0.497c0.59,0 1.068,0.166 1.437,0.497c0.368,0.332 0.552,0.792 0.552,1.381l0,5.856c1.252,-2.136 3.112,-4.07 5.58,-5.8c2.467,-1.731 5.543,-2.597 9.225,-2.597c3.61,0 6.924,0.902 9.944,2.707c3.02,1.805 5.433,4.199 7.237,7.182c1.805,2.983 2.707,6.316 2.707,9.999l0,30.936c0,0.663 -0.202,1.16 -0.608,1.492c-0.405,0.331 -0.865,0.497 -1.381,0.497c-0.442,-0 -0.865,-0.166 -1.27,-0.497c-0.405,-0.332 -0.608,-0.829 -0.608,-1.492l0,-30.936c0,-2.726 -0.718,-5.304 -2.154,-7.734c-1.437,-2.431 -3.333,-4.42 -5.691,-5.967c-2.357,-1.546 -4.971,-2.32 -7.844,-2.32c-2.504,0 -4.917,0.645 -7.237,1.934c-2.32,1.289 -4.217,3.112 -5.69,5.469c-1.473,2.357 -2.21,5.229 -2.21,8.618l0,30.936c0,0.516 -0.184,0.976 -0.552,1.381c-0.369,0.405 -0.847,0.608 -1.437,0.608Z" style="fill-rule:nonzero;"/><path d="M731.101,543.928c-0.516,-0 -0.976,-0.166 -1.381,-0.497c-0.405,-0.332 -0.608,-0.829 -0.608,-1.492l0,-76.788c0,-0.663 0.203,-1.16 0.608,-1.492c0.405,-0.331 0.865,-0.497 1.381,-0.497l39.333,-0c0.663,-0 1.142,0.202 1.436,0.608c0.295,0.405 0.442,0.828 0.442,1.27c0,0.516 -0.165,0.995 -0.497,1.437c-0.331,0.441 -0.792,0.662 -1.381,0.662l-37.344,0l-0,34.362l17.677,-0c0.59,-0 1.05,0.202 1.382,0.608c0.331,0.405 0.497,0.902 0.497,1.491c-0,0.442 -0.148,0.866 -0.442,1.271c-0.295,0.405 -0.774,0.607 -1.437,0.607l-17.677,0l-0,34.472l37.344,0c0.589,0 1.05,0.203 1.381,0.608c0.332,0.405 0.497,0.902 0.497,1.492c0,0.441 -0.147,0.865 -0.442,1.27c-0.294,0.405 -0.773,0.608 -1.436,0.608l-39.333,-0Z" style="fill-rule:nonzero;"/><path d="M785.35,543.928c-0.516,-0 -0.958,-0.203 -1.326,-0.608c-0.368,-0.405 -0.552,-0.865 -0.552,-1.381l-0,-80.987c-0,-0.589 0.184,-1.049 0.552,-1.381c0.368,-0.331 0.81,-0.497 1.326,-0.497c0.589,-0 1.068,0.166 1.436,0.497c0.368,0.332 0.553,0.792 0.553,1.381l-0,80.987c-0,0.516 -0.185,0.976 -0.553,1.381c-0.368,0.405 -0.847,0.608 -1.436,0.608Z" style="fill-rule:nonzero;"/><path d="M805.348,474.542c-0.958,0 -1.786,-0.35 -2.486,-1.05c-0.7,-0.699 -1.05,-1.528 -1.05,-2.486c0,-0.957 0.35,-1.767 1.05,-2.43c0.7,-0.663 1.528,-0.995 2.486,-0.995c0.958,0 1.768,0.332 2.431,0.995c0.663,0.663 0.994,1.473 0.994,2.43c0,0.958 -0.331,1.787 -0.994,2.486c-0.663,0.7 -1.473,1.05 -2.431,1.05Zm-0.111,69.386c-0.515,-0 -0.957,-0.203 -1.325,-0.608c-0.369,-0.405 -0.553,-0.865 -0.553,-1.381l0,-48.283c0,-0.589 0.184,-1.049 0.553,-1.381c0.368,-0.331 0.81,-0.497 1.325,-0.497c0.59,0 1.069,0.166 1.437,0.497c0.368,0.332 0.552,0.792 0.552,1.381l0,48.283c0,0.516 -0.184,0.976 -0.552,1.381c-0.368,0.405 -0.847,0.608 -1.437,0.608Z" style="fill-rule:nonzero;"/><path d="M819.601,543.928c-0.516,-0 -0.976,-0.166 -1.381,-0.497c-0.405,-0.332 -0.608,-0.755 -0.608,-1.271c0,-0.147 0.037,-0.368 0.11,-0.663c0.074,-0.295 0.185,-0.516 0.332,-0.663l29.5,-45.189l-26.848,0c-0.516,0 -0.976,-0.184 -1.381,-0.552c-0.406,-0.369 -0.608,-0.811 -0.608,-1.326c-0,-0.589 0.202,-1.068 0.608,-1.437c0.405,-0.368 0.865,-0.552 1.381,-0.552l30.604,0c0.59,0 1.069,0.184 1.437,0.552c0.368,0.369 0.552,0.848 0.552,1.437c0,0.368 -0.11,0.736 -0.331,1.105l-29.611,45.189l29.058,-0c0.59,-0 1.068,0.184 1.437,0.552c0.368,0.368 0.552,0.847 0.552,1.437c0,0.515 -0.184,0.957 -0.552,1.325c-0.369,0.369 -0.847,0.553 -1.437,0.553l-32.814,-0Z" style="fill-rule:nonzero;"/><path d="M876.502,544.591c-4.273,-0 -7.9,-1.197 -10.883,-3.591c-2.984,-2.394 -4.475,-6.058 -4.475,-10.994c-0,-3.903 1.086,-6.905 3.259,-9.004c2.173,-2.099 5.193,-3.554 9.06,-4.364c3.867,-0.811 8.342,-1.216 13.424,-1.216l6.188,0l-0,-3.093c-0,-2.799 -0.479,-5.525 -1.437,-8.176c-0.957,-2.652 -2.504,-4.843 -4.64,-6.574c-2.136,-1.731 -4.972,-2.597 -8.508,-2.597c-2.283,0 -4.198,0.24 -5.745,0.718c-1.547,0.479 -2.781,0.976 -3.701,1.492c-0.921,0.515 -1.602,0.773 -2.044,0.773c-0.59,0 -1.068,-0.276 -1.437,-0.828c-0.368,-0.553 -0.552,-1.013 -0.552,-1.381c-0,-0.737 0.681,-1.455 2.044,-2.155c1.363,-0.7 3.094,-1.289 5.193,-1.768c2.099,-0.479 4.254,-0.718 6.463,-0.718c4.567,0 8.176,1.013 10.828,3.038c2.652,2.026 4.548,4.641 5.69,7.845c1.142,3.204 1.713,6.648 1.713,10.331l-0,29.61c-0,0.516 -0.166,0.976 -0.498,1.381c-0.331,0.405 -0.791,0.608 -1.381,0.608c-0.515,-0 -0.976,-0.203 -1.381,-0.608c-0.405,-0.405 -0.607,-0.865 -0.607,-1.381l-0,-5.745c-1.842,2.136 -4.144,4.069 -6.906,5.8c-2.762,1.731 -5.985,2.597 -9.667,2.597Zm-0.111,-3.867c2.799,-0 5.469,-0.682 8.01,-2.044c2.542,-1.363 4.622,-3.002 6.243,-4.917c1.62,-1.915 2.431,-3.646 2.431,-5.193l-0,-9.281l-6.077,0c-3.757,0 -7.311,0.221 -10.662,0.663c-3.352,0.442 -6.077,1.418 -8.176,2.928c-2.1,1.51 -3.149,3.886 -3.149,7.126c-0,3.683 1.105,6.39 3.314,8.121c2.21,1.731 4.899,2.597 8.066,2.597Z" style="fill-rule:nonzero;"/><path d="M930.53,544.591c-3.389,-0 -6.427,-0.829 -9.116,-2.486c-2.688,-1.658 -4.658,-3.628 -5.911,-5.911l0,5.745c0,0.516 -0.184,0.976 -0.552,1.381c-0.368,0.405 -0.847,0.608 -1.436,0.608c-0.516,-0 -0.958,-0.203 -1.326,-0.608c-0.369,-0.405 -0.553,-0.865 -0.553,-1.381l0,-80.987c0,-0.589 0.184,-1.049 0.553,-1.381c0.368,-0.331 0.81,-0.497 1.326,-0.497c0.589,-0 1.068,0.166 1.436,0.497c0.368,0.332 0.552,0.792 0.552,1.381l0,38.56c1.253,-2.136 3.112,-4.07 5.58,-5.8c2.467,-1.731 5.543,-2.597 9.226,-2.597c3.609,0 6.923,0.902 9.943,2.707c3.02,1.805 5.433,4.199 7.237,7.182c1.805,2.983 2.707,6.316 2.707,9.999l0,13.479c0,3.462 -0.902,6.74 -2.707,9.833c-1.804,3.094 -4.198,5.58 -7.181,7.458c-2.983,1.879 -6.243,2.818 -9.778,2.818Zm0.221,-3.867c2.799,-0 5.377,-0.774 7.734,-2.321c2.357,-1.546 4.253,-3.572 5.69,-6.076c1.436,-2.505 2.154,-5.12 2.154,-7.845l0,-13.479c0,-2.726 -0.718,-5.304 -2.154,-7.734c-1.437,-2.431 -3.333,-4.42 -5.69,-5.967c-2.357,-1.546 -4.972,-2.32 -7.845,-2.32c-2.504,0 -4.917,0.645 -7.237,1.934c-2.32,1.289 -4.217,3.112 -5.69,5.469c-1.473,2.357 -2.21,5.229 -2.21,8.618l0,17.567c0,1.252 0.663,2.836 1.989,4.751c1.326,1.915 3.149,3.628 5.469,5.138c2.32,1.51 4.917,2.265 7.79,2.265Z" style="fill-rule:nonzero;"/><path d="M983.674,544.591c-4.346,-0 -8.195,-0.847 -11.546,-2.541c-3.352,-1.695 -5.985,-4.033 -7.9,-7.016c-1.915,-2.984 -2.873,-6.501 -2.873,-10.552l0,-13.811c0,-3.535 0.903,-6.795 2.707,-9.778c1.805,-2.983 4.199,-5.358 7.182,-7.126c2.983,-1.768 6.243,-2.652 9.778,-2.652c3.462,0 6.685,0.866 9.668,2.597c2.983,1.73 5.377,4.088 7.181,7.071c1.805,2.983 2.707,6.39 2.707,10.22c0,2.651 -0.442,4.567 -1.326,5.745c-0.883,1.179 -2.007,1.897 -3.369,2.155c-1.363,0.257 -2.855,0.386 -4.475,0.386l-26.186,0l0,5.193c0,5.009 1.768,8.968 5.304,11.877c3.535,2.91 7.992,4.365 13.369,4.365c3.093,-0 5.45,-0.387 7.071,-1.16c1.62,-0.774 2.854,-1.529 3.701,-2.265c0.847,-0.737 1.602,-1.105 2.265,-1.105c0.368,-0 0.7,0.11 0.995,0.331c0.294,0.221 0.534,0.479 0.718,0.774c0.184,0.294 0.276,0.589 0.276,0.883c-0,0.663 -0.608,1.51 -1.823,2.542c-1.215,1.031 -2.965,1.933 -5.248,2.707c-2.284,0.773 -5.009,1.16 -8.176,1.16Zm-18.452,-29.169l24.86,0c2.725,0 4.512,-0.258 5.359,-0.773c0.847,-0.516 1.27,-1.621 1.27,-3.315c0,-2.652 -0.644,-5.23 -1.933,-7.734c-1.289,-2.504 -3.112,-4.567 -5.469,-6.187c-2.357,-1.621 -5.12,-2.431 -8.287,-2.431c-2.946,0 -5.616,0.737 -8.01,2.21c-2.394,1.473 -4.291,3.388 -5.69,5.745c-1.4,2.357 -2.1,4.935 -2.1,7.734l0,4.751Z" style="fill-rule:nonzero;"/><path d="M1028.31,543.928c-5.229,-0 -9.225,-1.216 -11.987,-3.646c-2.763,-2.431 -4.144,-6.335 -4.144,-11.712l0,-60.436c0,-0.589 0.203,-1.05 0.608,-1.381c0.405,-0.332 0.829,-0.497 1.271,-0.497c0.515,-0 0.976,0.165 1.381,0.497c0.405,0.331 0.607,0.792 0.607,1.381l0,23.644l14.916,0c0.516,0 0.958,0.184 1.326,0.552c0.368,0.369 0.552,0.848 0.552,1.437c0,0.515 -0.184,0.957 -0.552,1.326c-0.368,0.368 -0.81,0.552 -1.326,0.552l-14.916,0l0,32.925c0,4.199 0.921,7.163 2.763,8.894c1.841,1.731 5.008,2.597 9.501,2.597l2.542,-0c0.515,-0 0.957,0.166 1.326,0.497c0.368,0.331 0.552,0.792 0.552,1.381c-0,0.516 -0.184,0.976 -0.552,1.381c-0.369,0.405 -0.811,0.608 -1.326,0.608l-2.542,-0Z" style="fill-rule:nonzero;"/><path d="M1044.44,543.928c-0.516,-0 -0.958,-0.203 -1.326,-0.608c-0.369,-0.405 -0.553,-0.865 -0.553,-1.381l0,-80.987c0,-0.589 0.184,-1.049 0.553,-1.381c0.368,-0.331 0.81,-0.497 1.326,-0.497c0.589,-0 1.068,0.166 1.436,0.497c0.368,0.332 0.552,0.792 0.552,1.381l0,38.56c1.252,-2.136 3.112,-4.07 5.58,-5.8c2.467,-1.731 5.543,-2.597 9.226,-2.597c3.609,0 6.923,0.902 9.943,2.707c3.02,1.805 5.433,4.199 7.237,7.182c1.805,2.983 2.707,6.316 2.707,9.999l0,30.936c0,0.663 -0.202,1.16 -0.607,1.492c-0.406,0.331 -0.866,0.497 -1.382,0.497c-0.442,-0 -0.865,-0.166 -1.27,-0.497c-0.405,-0.332 -0.608,-0.829 -0.608,-1.492l0,-30.936c0,-2.726 -0.718,-5.304 -2.154,-7.734c-1.437,-2.431 -3.333,-4.42 -5.69,-5.967c-2.357,-1.546 -4.972,-2.32 -7.845,-2.32c-2.504,0 -4.917,0.645 -7.237,1.934c-2.32,1.289 -4.217,3.112 -5.69,5.469c-1.473,2.357 -2.21,5.229 -2.21,8.618l0,30.936c0,0.516 -0.184,0.976 -0.552,1.381c-0.368,0.405 -0.847,0.608 -1.436,0.608Z" style="fill-rule:nonzero;"/><path d="M52.294,768.567l0,-111.601l21.943,0l30.917,86.34l31.821,-86.34l19.606,0l0,111.601l-14.779,0l-0,-90.789l-30.766,83.324l-15.308,0l-29.861,-83.55l0,91.015l-13.573,0Z" style="fill-rule:nonzero;"/><path d="M263.51,758.161c-8.898,8.195 -17.469,12.292 -25.713,12.292c-6.787,-0 -12.417,-2.124 -16.891,-6.372c-4.474,-4.248 -6.711,-9.615 -6.711,-16.099c-0,-8.949 3.757,-15.823 11.273,-20.624c7.515,-4.801 18.286,-7.201 32.311,-7.201l3.545,-0l-0,-9.879c-0,-9.501 -4.877,-14.251 -14.629,-14.251c-7.843,-0 -16.313,2.413 -25.412,7.239l-0,-12.292c10.004,-4.072 19.379,-6.108 28.126,-6.108c9.15,0 15.899,2.062 20.247,6.184c4.348,4.122 6.523,10.532 6.523,19.228l-0,37.1c-0,8.496 2.614,12.744 7.842,12.744c0.653,-0 1.609,-0.101 2.865,-0.302l1.056,8.22c-3.368,1.608 -7.088,2.413 -11.16,2.413c-6.938,-0 -11.361,-4.097 -13.272,-12.292Zm-2.186,-8.068l-0,-21.189l-4.977,-0.151c-8.144,-0 -14.73,1.546 -19.757,4.637c-5.027,3.092 -7.54,7.151 -7.54,12.179c-0,3.569 1.256,6.585 3.77,9.048c2.514,2.464 5.58,3.695 9.2,3.695c6.183,0 12.618,-2.74 19.304,-8.219Z" style="fill-rule:nonzero;"/><rect x="342.087" y="649.501" width="14.855" height="119.067" style="fill-rule:nonzero;"/><path d="M474.805,768.567l-0,-15.382c-6.033,11.512 -15.132,17.268 -27.297,17.268c-9.853,-0 -17.608,-3.595 -23.263,-10.783c-5.656,-7.189 -8.483,-17.017 -8.483,-29.484c-0,-13.624 3.205,-24.583 9.614,-32.878c6.41,-8.294 14.843,-12.442 25.299,-12.442c9.702,0 17.746,3.72 24.13,11.161l-0,-46.526l14.93,-0l0,119.066l-14.93,0Zm-0,-62.361c-7.692,-6.786 -14.981,-10.179 -21.868,-10.179c-14.227,-0 -21.34,10.883 -21.34,32.651c0,19.153 6.334,28.729 19.002,28.729c8.245,0 16.313,-4.499 24.206,-13.497l-0,-37.704Z" style="fill-rule:nonzero;"/><path d="M587.013,770.453c-11.714,-0 -21.064,-3.884 -28.052,-11.651c-6.987,-7.767 -10.481,-18.16 -10.481,-31.18c-0,-13.171 3.506,-23.59 10.519,-31.256c7.013,-7.666 16.527,-11.5 28.541,-11.5c12.015,0 21.529,3.834 28.542,11.5c7.012,7.666 10.519,18.035 10.519,31.105c-0,13.372 -3.519,23.879 -10.557,31.52c-7.038,7.641 -16.715,11.462 -29.031,11.462Zm0.226,-11.161c15.735,0 23.602,-10.607 23.602,-31.821c-0,-20.963 -7.767,-31.444 -23.301,-31.444c-15.483,-0 -23.225,10.531 -23.225,31.595c0,21.114 7.641,31.67 22.924,31.67Z" style="fill-rule:nonzero;"/><path d="M685.345,768.567l0,-81.891l14.855,0l0,15.383c7.843,-11.462 17.444,-17.193 28.806,-17.193c7.088,0 12.743,2.25 16.966,6.749c4.223,4.5 6.334,10.545 6.334,18.136l0,58.816l-14.855,0l0,-53.99c0,-6.083 -0.892,-10.419 -2.677,-13.008c-1.784,-2.589 -4.738,-3.883 -8.86,-3.883c-9.099,-0 -17.67,5.957 -25.714,17.871l0,53.01l-14.855,0Z" style="fill-rule:nonzero;"/><path d="M858.934,758.161c-8.898,8.195 -17.469,12.292 -25.714,12.292c-6.786,-0 -12.417,-2.124 -16.891,-6.372c-4.474,-4.248 -6.711,-9.615 -6.711,-16.099c0,-8.949 3.758,-15.823 11.273,-20.624c7.516,-4.801 18.286,-7.201 32.312,-7.201l3.544,-0l0,-9.879c0,-9.501 -4.876,-14.251 -14.629,-14.251c-7.842,-0 -16.313,2.413 -25.412,7.239l0,-12.292c10.004,-4.072 19.38,-6.108 28.127,-6.108c9.149,0 15.898,2.062 20.246,6.184c4.349,4.122 6.523,10.532 6.523,19.228l0,37.1c0,8.496 2.614,12.744 7.842,12.744c0.654,-0 1.609,-0.101 2.866,-0.302l1.055,8.22c-3.368,1.608 -7.088,2.413 -11.16,2.413c-6.937,-0 -11.361,-4.097 -13.271,-12.292Zm-2.187,-8.068l0,-21.189l-4.977,-0.151c-8.144,-0 -14.729,1.546 -19.756,4.637c-5.027,3.092 -7.541,7.151 -7.541,12.179c0,3.569 1.257,6.585 3.77,9.048c2.514,2.464 5.581,3.695 9.2,3.695c6.183,0 12.618,-2.74 19.304,-8.219Z" style="fill-rule:nonzero;"/><path d="M990.068,768.567l0,-15.382c-6.032,11.512 -15.131,17.268 -27.297,17.268c-9.853,-0 -17.607,-3.595 -23.263,-10.783c-5.655,-7.189 -8.483,-17.017 -8.483,-29.484c0,-13.624 3.205,-24.583 9.615,-32.878c6.409,-8.294 14.842,-12.442 25.298,-12.442c9.703,0 17.746,3.72 24.13,11.161l0,-46.526l14.931,-0l-0,119.066l-14.931,0Zm0,-62.361c-7.691,-6.786 -14.98,-10.179 -21.867,-10.179c-14.227,-0 -21.34,10.883 -21.34,32.651c-0,19.153 6.334,28.729 19.002,28.729c8.244,0 16.313,-4.499 24.205,-13.497l0,-37.704Z" style="fill-rule:nonzero;"/><path d="M1102.28,770.453c-11.713,-0 -21.063,-3.884 -28.051,-11.651c-6.988,-7.767 -10.482,-18.16 -10.482,-31.18c0,-13.171 3.507,-23.59 10.52,-31.256c7.012,-7.666 16.526,-11.5 28.541,-11.5c12.015,0 21.528,3.834 28.541,11.5c7.013,7.666 10.519,18.035 10.519,31.105c0,13.372 -3.519,23.879 -10.556,31.52c-7.038,7.641 -16.716,11.462 -29.032,11.462Zm0.226,-11.161c15.735,0 23.602,-10.607 23.602,-31.821c0,-20.963 -7.766,-31.444 -23.3,-31.444c-15.484,-0 -23.225,10.531 -23.225,31.595c-0,21.114 7.641,31.67 22.923,31.67Z" style="fill-rule:nonzero;"/></g></svg>