<?xml version="1.0" encoding="UTF-8" standalone="no"?>
<!DOCTYPE svg PUBLIC "-//W3C//DTD SVG 1.1//EN" "http://www.w3.org/Graphics/SVG/1.1/DTD/svg11.dtd">
<svg width="100%" height="100%" viewBox="0 0 299 185" version="1.1" xmlns="http://www.w3.org/2000/svg" xmlns:xlink="http://www.w3.org/1999/xlink" xml:space="preserve" xmlns:serif="http://www.serif.com/" style="fill-rule:evenodd;clip-rule:evenodd;stroke-linejoin:round;stroke-miterlimit:2;">
    <g transform="matrix(1,0,0,1,-440.272,-81.8379)">
        <g id="Final">
            <g>
                <g>
                    <g transform="matrix(1,0,0,1,535,205.5)">
                        <path d="M0,0C0,3.038 -2.351,5.5 -5.25,5.5C-8.149,5.5 -10.5,3.038 -10.5,0C-10.5,-3.038 -8.149,-5.5 -5.25,-5.5C-2.351,-5.5 0,-3.038 0,0" style="fill:#fff;fill-rule:nonzero;"/>
                    </g>
                    <!-- <g transform="matrix(1,0,0,1,735.199,220.473)">
                        <path d="M0,6.527L-278.781,6.527C-280.569,6.527 -282.031,5.065 -282.031,3.277L-282.031,3.25C-282.031,1.462 -280.569,0 -278.781,0L0,0C1.788,0 3.25,1.462 3.25,3.25L3.25,3.277C3.25,5.065 1.788,6.527 0,6.527" style="fill:#fff;fill-rule:nonzero;"/>
                    </g> -->
                </g>
                <g transform="matrix(1,0,0,1,479.5,108.5)">
                    <path d="M0,76C2.761,76 5,76.896 5,78C5,79.104 2.761,80 0,80C-2.761,80 -5,79.104 -5,78C-5,76.896 -2.761,76 0,76M12,67.5C14.5,65.5 35.764,21.992 41.264,12.492C46.764,2.992 49.189,-5.803 42.574,-9.195C32.636,-14.292 14,-12.5 0,41C0,41 3.5,-25.5 -11,-26.5C-11,-26.5 -34,-32.5 -39,28.5C-39,28.5 -43,57 -17.5,77.5C-17.5,77.5 -23,94.5 -13.5,100.5C-4,106.5 14.5,108.5 25,105C25,105 38,100.5 30,96C30,96 23,96 19,99C15,102 -9.5,100 -11.5,95C-13.5,90 -9.5,84.5 -9.5,84.5L11.5,88C11.5,88 24.654,87.369 9.654,73.369C9.654,73.369 -1.054,65.318 -12,70.5C-12,70.5 -37,56 -30.5,14C-30.5,14 -23,-20.5 -15.5,-17.5C-8,-14.5 -9.5,64.5 -9.5,64.5L-2,66C-2,66 26.586,-24.096 39.076,-1.766L4,68C4,68 9.5,69.5 12,67.5" style="fill:#fff;fill-rule:nonzero;"/>
                </g>
            </g>
            <!-- <g id="Grotesque-font" serif:id="Grotesque font" transform="matrix(0.921584,0,0,0.921584,-380.793,110.545)">
                <g transform="matrix(36,0,0,36,903.006,162.674)">
                    <path d="M0.394,-0L0.598,-0.57L0.602,-0.57L0.602,-0L0.666,-0L0.666,-0.63L0.563,-0.63L0.373,-0.085L0.37,-0.085L0.169,-0.63L0.065,-0.63L0.065,-0L0.125,-0L0.125,-0.57L0.129,-0.57L0.341,-0L0.394,-0Z" style="fill-rule:nonzero;"/>
                </g>
                <g transform="matrix(36,0,0,36,937.602,162.674)">
                    <path d="M0.398,-0.155C0.38,-0.078 0.331,-0.038 0.251,-0.038C0.165,-0.038 0.098,-0.106 0.094,-0.202L0.451,-0.202L0.451,-0.23C0.451,-0.348 0.383,-0.446 0.247,-0.446C0.124,-0.446 0.031,-0.348 0.031,-0.211C0.031,-0.077 0.125,0.012 0.251,0.012C0.357,0.012 0.429,-0.049 0.45,-0.148L0.398,-0.155ZM0.095,-0.245C0.105,-0.326 0.161,-0.398 0.247,-0.398C0.339,-0.398 0.384,-0.325 0.386,-0.245L0.095,-0.245Z" style="fill-rule:nonzero;"/>
                </g>
                <g transform="matrix(36,0,0,36,963.234,162.674)">
                    <path d="M0.405,-0.35C0.386,-0.408 0.338,-0.446 0.261,-0.446C0.194,-0.446 0.142,-0.407 0.121,-0.354L0.121,-0.434L0.06,-0.434L0.06,-0L0.121,-0L0.121,-0.26C0.121,-0.344 0.179,-0.398 0.244,-0.398C0.316,-0.398 0.351,-0.348 0.351,-0.271L0.351,-0L0.412,-0L0.412,-0.26C0.412,-0.344 0.47,-0.398 0.535,-0.398C0.607,-0.398 0.642,-0.348 0.642,-0.271L0.642,-0L0.703,-0L0.703,-0.269C0.703,-0.369 0.662,-0.446 0.55,-0.446C0.482,-0.446 0.428,-0.405 0.405,-0.35Z" style="fill-rule:nonzero;"/>
                </g>
                <g transform="matrix(36,0,0,36,998.802,162.674)">
                    <path d="M0.336,-0.197C0.336,-0.1 0.271,-0.035 0.186,-0.035C0.129,-0.035 0.102,-0.069 0.102,-0.11C0.102,-0.168 0.151,-0.184 0.23,-0.201L0.336,-0.224L0.336,-0.197ZM0.394,-0.282C0.394,-0.389 0.336,-0.446 0.228,-0.446C0.134,-0.446 0.07,-0.389 0.053,-0.311L0.105,-0.301C0.12,-0.357 0.159,-0.398 0.229,-0.398C0.297,-0.398 0.336,-0.357 0.336,-0.291L0.336,-0.269L0.22,-0.245C0.112,-0.223 0.04,-0.19 0.04,-0.108C0.04,-0.033 0.094,0.012 0.175,0.012C0.249,0.012 0.313,-0.032 0.336,-0.083C0.338,-0.028 0.369,0.009 0.412,0.009C0.442,0.009 0.456,-0.002 0.469,-0.017L0.469,-0.05C0.457,-0.043 0.44,-0.039 0.43,-0.039C0.408,-0.039 0.394,-0.05 0.394,-0.073L0.394,-0.282Z" style="fill-rule:nonzero;"/>
                </g>
                <g transform="matrix(36,0,0,36,1024.29,162.674)">
                    <rect x="0.06" y="-0.63" width="0.061" height="0.63" style="fill-rule:nonzero;"/>
                </g>
                <g transform="matrix(36,0,0,36,1053.85,162.674)">
                    <path d="M0.128,-0.053L0.128,-0.577L0.284,-0.577C0.45,-0.577 0.539,-0.479 0.539,-0.315C0.539,-0.151 0.45,-0.053 0.284,-0.053L0.128,-0.053ZM0.065,-0L0.287,-0C0.482,-0 0.605,-0.118 0.605,-0.315C0.605,-0.512 0.482,-0.63 0.287,-0.63L0.065,-0.63L0.065,-0Z" style="fill-rule:nonzero;"/>
                </g>
                <g transform="matrix(36,0,0,36,1085.35,162.674)">
                    <path d="M0.398,-0.155C0.38,-0.078 0.331,-0.038 0.251,-0.038C0.165,-0.038 0.098,-0.106 0.094,-0.202L0.451,-0.202L0.451,-0.23C0.451,-0.348 0.383,-0.446 0.247,-0.446C0.124,-0.446 0.031,-0.348 0.031,-0.211C0.031,-0.077 0.125,0.012 0.251,0.012C0.357,0.012 0.429,-0.049 0.45,-0.148L0.398,-0.155ZM0.095,-0.245C0.105,-0.326 0.161,-0.398 0.247,-0.398C0.339,-0.398 0.384,-0.325 0.386,-0.245L0.095,-0.245Z" style="fill-rule:nonzero;"/>
                </g>
                <g transform="matrix(36,0,0,36,1111.16,162.674)">
                    <path d="M0.029,-0.147C0.036,-0.04 0.117,0.012 0.222,0.012C0.317,0.012 0.393,-0.033 0.393,-0.118C0.393,-0.195 0.343,-0.225 0.258,-0.239L0.178,-0.252C0.124,-0.261 0.099,-0.282 0.099,-0.324C0.099,-0.37 0.14,-0.398 0.202,-0.398C0.282,-0.398 0.328,-0.364 0.339,-0.286L0.386,-0.29C0.379,-0.393 0.314,-0.446 0.202,-0.446C0.107,-0.446 0.042,-0.395 0.042,-0.317C0.042,-0.247 0.089,-0.212 0.165,-0.199L0.24,-0.186C0.301,-0.175 0.335,-0.16 0.335,-0.112C0.335,-0.061 0.288,-0.036 0.221,-0.036C0.138,-0.036 0.087,-0.078 0.078,-0.153L0.029,-0.147Z" style="fill-rule:nonzero;"/>
                </g>
                <g transform="matrix(36,0,0,36,1134.74,162.674)">
                    <path d="M0.06,-0.434L0.06,-0L0.121,-0L0.121,-0.434L0.06,-0.434ZM0.058,-0.549L0.123,-0.549L0.123,-0.63L0.058,-0.63L0.058,-0.549Z" style="fill-rule:nonzero;"/>
                </g>
                <g transform="matrix(36,0,0,36,1149.53,162.674)">
                    <path d="M0.404,-0.299C0.404,-0.329 0.396,-0.355 0.381,-0.377C0.402,-0.389 0.437,-0.398 0.47,-0.398L0.47,-0.457C0.424,-0.457 0.386,-0.433 0.363,-0.398C0.332,-0.429 0.284,-0.446 0.228,-0.446C0.126,-0.446 0.053,-0.39 0.053,-0.299C0.053,-0.251 0.073,-0.212 0.107,-0.187C0.072,-0.169 0.046,-0.144 0.046,-0.107C0.046,-0.075 0.062,-0.048 0.102,-0.036C0.047,-0.024 0.01,0.009 0.01,0.062C0.01,0.142 0.105,0.182 0.22,0.182C0.347,0.182 0.464,0.142 0.464,0.035C0.464,-0.032 0.415,-0.08 0.322,-0.08L0.154,-0.08C0.112,-0.08 0.097,-0.094 0.097,-0.121C0.097,-0.144 0.115,-0.162 0.133,-0.171C0.16,-0.158 0.192,-0.152 0.228,-0.152C0.33,-0.152 0.404,-0.208 0.404,-0.299ZM0.072,0.047C0.072,-0.009 0.118,-0.026 0.171,-0.026L0.308,-0.026C0.366,-0.026 0.405,-0.009 0.405,0.037C0.405,0.112 0.328,0.138 0.22,0.138C0.133,0.138 0.072,0.111 0.072,0.047ZM0.342,-0.298C0.342,-0.232 0.3,-0.193 0.228,-0.193C0.158,-0.193 0.116,-0.232 0.116,-0.298C0.116,-0.365 0.158,-0.404 0.228,-0.404C0.3,-0.404 0.342,-0.365 0.342,-0.298Z" style="fill-rule:nonzero;"/>
                </g>
                <g transform="matrix(36,0,0,36,1174.73,162.674)">
                    <path d="M0.121,-0.26C0.121,-0.344 0.182,-0.398 0.251,-0.398C0.325,-0.398 0.365,-0.348 0.365,-0.271L0.365,-0L0.426,-0L0.426,-0.269C0.426,-0.373 0.379,-0.446 0.267,-0.446C0.202,-0.446 0.142,-0.407 0.121,-0.354L0.121,-0.434L0.06,-0.434L0.06,-0L0.121,-0L0.121,-0.26Z" style="fill-rule:nonzero;"/>
                </g>
                <g transform="matrix(36,0,0,36,1200.33,162.674)">
                    <path d="M0.029,-0.147C0.036,-0.04 0.117,0.012 0.222,0.012C0.317,0.012 0.393,-0.033 0.393,-0.118C0.393,-0.195 0.343,-0.225 0.258,-0.239L0.178,-0.252C0.124,-0.261 0.099,-0.282 0.099,-0.324C0.099,-0.37 0.14,-0.398 0.202,-0.398C0.282,-0.398 0.328,-0.364 0.339,-0.286L0.386,-0.29C0.379,-0.393 0.314,-0.446 0.202,-0.446C0.107,-0.446 0.042,-0.395 0.042,-0.317C0.042,-0.247 0.089,-0.212 0.165,-0.199L0.24,-0.186C0.301,-0.175 0.335,-0.16 0.335,-0.112C0.335,-0.061 0.288,-0.036 0.221,-0.036C0.138,-0.036 0.087,-0.078 0.078,-0.153L0.029,-0.147Z" style="fill-rule:nonzero;"/>
                </g>
            </g> -->
        </g>
    </g>
</svg>
