<?xml version="1.0" encoding="UTF-8" standalone="no"?>
<!DOCTYPE svg PUBLIC "-//W3C//DTD SVG 1.1//EN" "http://www.w3.org/Graphics/SVG/1.1/DTD/svg11.dtd">
<svg width="100%" height="100%" viewBox="0 0 273 186" version="1.1" xmlns="http://www.w3.org/2000/svg" xmlns:xlink="http://www.w3.org/1999/xlink" xml:space="preserve" xmlns:serif="http://www.serif.com/" style="fill-rule:evenodd;fill:#3b2f30ff;clip-rule:evenodd;stroke-linejoin:round;stroke-miterlimit:2;">
    <g transform="matrix(1,0,0,1,-440.272,-81.8379)">
        <g id="memaldonado2023">
            <g transform="matrix(1.42408,0,0,0.301406,-190.895,155.031)">
                <path d="M634.897,220.723C634.897,219.803 634.739,219.056 634.545,219.056L450.487,219.056C450.292,219.056 450.134,219.803 450.134,220.723L450.134,224.057C450.134,224.977 450.292,225.724 450.487,225.724L634.545,225.724C634.739,225.724 634.897,224.977 634.897,224.057L634.897,220.723Z"/>
            </g>
            <g id="megan-Elizabeth" serif:id="megan Elizabeth" transform="matrix(2.36363,0,0,2.36363,-782.602,-276.803)">
                <path d="M564.979,203.193L567.76,197.882L568.162,197.882L568.683,205.116L568.216,205.116L567.792,198.697L565.197,203.704L564.762,203.704L562.166,198.697L561.743,205.116L561.276,205.116L561.797,197.882L562.199,197.882L564.979,203.193Z" style="fill-rule:nonzero; fill:#3b2f30ff;"/>
                <path d="M570.432,202.596C570.432,203.298 570.594,203.845 570.92,204.236C571.246,204.627 571.735,204.822 572.387,204.822C572.654,204.822 572.906,204.792 573.141,204.73C573.377,204.669 573.61,204.584 573.842,204.475L573.951,204.855C573.733,204.964 573.484,205.052 573.201,205.121C572.919,205.19 572.625,205.224 572.321,205.224C571.938,205.224 571.597,205.156 571.3,205.018C571.004,204.88 570.756,204.69 570.556,204.448C570.357,204.205 570.207,203.919 570.106,203.59C570.004,203.26 569.954,202.904 569.954,202.52C569.954,202.129 570.004,201.771 570.106,201.445C570.207,201.119 570.352,200.838 570.54,200.603C570.728,200.368 570.957,200.185 571.224,200.055C571.492,199.924 571.796,199.859 572.137,199.859C572.723,199.859 573.183,200.047 573.516,200.424C573.849,200.8 574.016,201.318 574.016,201.977C574.016,202.078 574.01,202.18 573.999,202.281C573.989,202.382 573.976,202.487 573.961,202.596L570.432,202.596ZM573.538,202.194C573.581,201.586 573.478,201.108 573.228,200.76C572.978,200.413 572.604,200.239 572.104,200.239C571.822,200.239 571.577,200.299 571.371,200.418C571.165,200.538 570.993,200.692 570.855,200.88C570.718,201.068 570.613,201.278 570.54,201.51C570.468,201.742 570.432,201.97 570.432,202.194L573.538,202.194Z" style="fill-rule:nonzero; fill:#3b2f30ff;"/>
                <path d="M577.024,203.291C576.843,203.291 576.684,203.277 576.546,203.248C576.459,203.306 576.38,203.38 576.307,203.47C576.235,203.561 576.199,203.668 576.199,203.791C576.199,203.95 576.259,204.062 576.378,204.127C576.497,204.193 576.662,204.236 576.872,204.258L577.926,204.366C578.128,204.388 578.331,204.426 578.534,204.48C578.737,204.535 578.919,204.611 579.082,204.708C579.245,204.806 579.376,204.929 579.473,205.078C579.571,205.226 579.62,205.409 579.62,205.626C579.62,205.909 579.54,206.162 579.381,206.386C579.222,206.611 579.012,206.803 578.751,206.962C578.49,207.121 578.195,207.245 577.866,207.331C577.536,207.418 577.205,207.462 576.872,207.462C576.561,207.462 576.277,207.431 576.02,207.369C575.763,207.308 575.542,207.219 575.357,207.103C575.172,206.987 575.029,206.844 574.928,206.674C574.827,206.504 574.776,206.314 574.776,206.104C574.776,205.887 574.828,205.693 574.933,205.523C575.038,205.353 575.171,205.204 575.33,205.078C575.489,204.951 575.663,204.844 575.851,204.757C576.039,204.67 576.217,204.598 576.383,204.54C576.21,204.489 576.059,204.406 575.933,204.29C575.806,204.174 575.743,204.022 575.743,203.834C575.743,203.675 575.795,203.537 575.9,203.421C576.005,203.306 576.112,203.215 576.22,203.15C575.858,203.02 575.583,202.808 575.395,202.515C575.207,202.221 575.113,201.908 575.113,201.575C575.113,201.314 575.163,201.079 575.265,200.869C575.366,200.659 575.504,200.48 575.677,200.331C575.851,200.183 576.054,200.067 576.286,199.984C576.517,199.901 576.764,199.859 577.024,199.859C577.147,199.859 577.27,199.868 577.393,199.886C577.517,199.904 577.632,199.931 577.741,199.968L579.555,199.968L579.555,200.359L578.425,200.359C578.585,200.503 578.709,200.679 578.8,200.885C578.89,201.092 578.936,201.322 578.936,201.575C578.936,201.792 578.892,202.004 578.805,202.21C578.719,202.417 578.592,202.6 578.425,202.759C578.259,202.918 578.058,203.047 577.822,203.144C577.587,203.242 577.321,203.291 577.024,203.291ZM576.872,204.627C576.691,204.699 576.505,204.779 576.313,204.866C576.121,204.953 575.945,205.054 575.786,205.17C575.627,205.286 575.495,205.418 575.39,205.566C575.285,205.715 575.232,205.883 575.232,206.072C575.232,206.267 575.279,206.43 575.373,206.56C575.467,206.691 575.591,206.794 575.743,206.87C575.895,206.946 576.07,206.998 576.269,207.027C576.468,207.056 576.673,207.071 576.883,207.071C577.187,207.071 577.477,207.036 577.752,206.968C578.027,206.899 578.27,206.801 578.48,206.674C578.69,206.548 578.856,206.396 578.979,206.218C579.102,206.041 579.164,205.847 579.164,205.637C579.164,205.34 579.043,205.125 578.8,204.991C578.557,204.857 578.251,204.772 577.882,204.736L576.872,204.627ZM577.024,202.911C577.22,202.911 577.404,202.882 577.578,202.824C577.752,202.766 577.906,202.679 578.04,202.563C578.174,202.448 578.28,202.306 578.36,202.14C578.44,201.973 578.48,201.785 578.48,201.575C578.48,201.358 578.44,201.166 578.36,200.999C578.28,200.833 578.174,200.694 578.04,200.581C577.906,200.469 577.752,200.384 577.578,200.326C577.404,200.268 577.22,200.239 577.024,200.239C576.829,200.239 576.644,200.264 576.47,200.315C576.297,200.366 576.143,200.446 576.009,200.554C575.875,200.663 575.768,200.802 575.688,200.972C575.609,201.142 575.569,201.343 575.569,201.575C575.569,201.807 575.609,202.006 575.688,202.172C575.768,202.339 575.875,202.477 576.009,202.585C576.143,202.694 576.297,202.775 576.47,202.83C576.644,202.884 576.829,202.911 577.024,202.911Z" style="fill-rule:nonzero; fill:#3b2f30ff;"/>
                <path d="M583.552,204.366C583.472,204.468 583.372,204.569 583.253,204.67C583.134,204.772 582.994,204.862 582.835,204.942C582.676,205.022 582.504,205.089 582.319,205.143C582.134,205.197 581.937,205.224 581.727,205.224C581.293,205.224 580.949,205.099 580.695,204.85C580.442,204.6 580.315,204.269 580.315,203.856C580.315,203.631 580.357,203.434 580.44,203.264C580.523,203.094 580.639,202.947 580.788,202.824C580.936,202.701 581.112,202.605 581.314,202.536C581.517,202.467 581.738,202.426 581.977,202.411C582.209,202.397 582.467,202.386 582.753,202.379C583.039,202.372 583.305,202.364 583.552,202.357L583.552,201.912C583.552,201.347 583.436,200.932 583.204,200.668C582.972,200.404 582.614,200.272 582.129,200.272C581.868,200.272 581.635,200.303 581.428,200.364C581.222,200.426 581.021,200.507 580.826,200.608L580.695,200.217C580.912,200.094 581.15,200.004 581.407,199.946C581.664,199.888 581.93,199.859 582.205,199.859C582.473,199.859 582.719,199.899 582.943,199.978C583.168,200.058 583.36,200.179 583.519,200.342C583.678,200.505 583.803,200.713 583.894,200.967C583.984,201.22 584.03,201.517 584.03,201.857L584.03,205.116L583.552,205.116L583.552,204.366ZM581.803,204.833C582.18,204.833 582.514,204.737 582.808,204.546C583.101,204.354 583.349,204.135 583.552,203.888L583.552,202.726C583.284,202.734 583.018,202.743 582.753,202.753C582.489,202.764 582.252,202.777 582.042,202.791C581.673,202.82 581.37,202.922 581.135,203.096C580.9,203.269 580.782,203.523 580.782,203.856C580.782,204.189 580.871,204.435 581.048,204.594C581.226,204.754 581.477,204.833 581.803,204.833Z" style="fill-rule:nonzero; fill:#3b2f30ff;"/>
                <path d="M586.267,200.75C586.477,200.474 586.732,200.257 587.033,200.098C587.333,199.939 587.668,199.859 588.037,199.859C588.349,199.859 588.617,199.926 588.841,200.06C589.065,200.194 589.25,200.375 589.395,200.603C589.54,200.831 589.647,201.097 589.715,201.401C589.784,201.705 589.818,202.028 589.818,202.368L589.818,205.116L589.341,205.116L589.341,202.444C589.341,202.147 589.317,201.866 589.27,201.602C589.223,201.338 589.145,201.108 589.036,200.913C588.928,200.717 588.781,200.561 588.597,200.446C588.412,200.33 588.186,200.272 587.918,200.272C587.599,200.272 587.301,200.36 587.022,200.538C586.743,200.715 586.502,200.927 586.3,201.173L586.3,205.116L585.822,205.116L585.822,199.968L586.267,199.968L586.267,200.75Z" style="fill-rule:nonzero; fill:#3b2f30ff;"/>
                <path d="M594,205.116L594,197.882L597.714,197.882L597.714,198.295L594.478,198.295L594.478,201.195L597.584,201.195L597.584,201.608L594.478,201.608L594.478,204.703L597.747,204.703L597.747,205.116L594,205.116Z" style="fill-rule:nonzero; fill:#3b2f30ff;"/>
                <path d="M601.005,205.072C600.803,205.145 600.582,205.181 600.343,205.181C599.981,205.181 599.715,205.065 599.545,204.833C599.374,204.602 599.289,204.319 599.289,203.986L599.289,197.448L599.767,197.448L599.767,203.986C599.767,204.225 599.814,204.417 599.908,204.562C600.002,204.707 600.176,204.779 600.43,204.779C600.618,204.779 600.792,204.754 600.951,204.703L601.005,205.072Z" style="fill-rule:nonzero; fill:#3b2f30ff;"/>
                <path d="M602.124,205.116L602.124,199.968L602.602,199.968L602.602,205.116L602.124,205.116ZM601.972,198.284C601.972,198.176 602.008,198.083 602.081,198.007C602.153,197.931 602.247,197.893 602.363,197.893C602.479,197.893 602.573,197.931 602.645,198.007C602.718,198.083 602.754,198.176 602.754,198.284C602.754,198.393 602.718,198.485 602.645,198.561C602.573,198.637 602.479,198.675 602.363,198.675C602.247,198.675 602.153,198.637 602.081,198.561C602.008,198.485 601.972,198.393 601.972,198.284Z" style="fill-rule:nonzero; fill:#3b2f30ff;"/>
                <path d="M604.231,205.116L604.231,204.703L607.164,200.38L604.361,200.38L604.361,199.968L607.674,199.968L607.674,200.38L604.742,204.703L607.75,204.703L607.75,205.116L604.231,205.116Z" style="fill-rule:nonzero; fill:#3b2f30ff;"/>
                <path d="M612.094,204.366C612.015,204.468 611.915,204.569 611.796,204.67C611.676,204.772 611.537,204.862 611.378,204.942C611.218,205.022 611.046,205.089 610.862,205.143C610.677,205.197 610.48,205.224 610.27,205.224C609.835,205.224 609.491,205.099 609.238,204.85C608.985,204.6 608.858,204.269 608.858,203.856C608.858,203.631 608.899,203.434 608.983,203.264C609.066,203.094 609.182,202.947 609.33,202.824C609.479,202.701 609.654,202.605 609.857,202.536C610.06,202.467 610.281,202.426 610.52,202.411C610.751,202.397 611.01,202.386 611.296,202.379C611.582,202.372 611.848,202.364 612.094,202.357L612.094,201.912C612.094,201.347 611.979,200.932 611.747,200.668C611.515,200.404 611.157,200.272 610.672,200.272C610.411,200.272 610.177,200.303 609.971,200.364C609.765,200.426 609.564,200.507 609.368,200.608L609.238,200.217C609.455,200.094 609.692,200.004 609.949,199.946C610.206,199.888 610.473,199.859 610.748,199.859C611.016,199.859 611.262,199.899 611.486,199.978C611.711,200.058 611.903,200.179 612.062,200.342C612.221,200.505 612.346,200.713 612.437,200.967C612.527,201.22 612.572,201.517 612.572,201.857L612.572,205.116L612.094,205.116L612.094,204.366ZM610.346,204.833C610.722,204.833 611.057,204.737 611.35,204.546C611.644,204.354 611.892,204.135 612.094,203.888L612.094,202.726C611.827,202.734 611.56,202.743 611.296,202.753C611.032,202.764 610.795,202.777 610.585,202.791C610.215,202.82 609.913,202.922 609.678,203.096C609.443,203.269 609.325,203.523 609.325,203.856C609.325,204.189 609.414,204.435 609.591,204.594C609.768,204.754 610.02,204.833 610.346,204.833Z" style="fill-rule:nonzero; fill:#3b2f30ff;"/>
                <path d="M618.546,202.509C618.546,202.893 618.488,203.249 618.372,203.579C618.256,203.908 618.088,204.194 617.867,204.437C617.646,204.679 617.377,204.871 617.058,205.013C616.739,205.154 616.381,205.224 615.983,205.224C615.396,205.224 614.857,205.123 614.364,204.92L614.364,197.448L614.842,197.448L614.842,200.489C615.016,200.322 615.239,200.176 615.51,200.049C615.782,199.922 616.088,199.859 616.428,199.859C616.776,199.859 617.081,199.928 617.346,200.065C617.61,200.203 617.831,200.391 618.008,200.63C618.186,200.869 618.32,201.15 618.41,201.472C618.501,201.794 618.546,202.14 618.546,202.509ZM618.068,202.509C618.068,202.198 618.035,201.906 617.97,201.635C617.905,201.363 617.802,201.126 617.661,200.923C617.52,200.721 617.34,200.561 617.123,200.446C616.906,200.33 616.649,200.272 616.352,200.272C616.077,200.272 615.809,200.331 615.548,200.451C615.288,200.57 615.052,200.721 614.842,200.902L614.842,204.627C615.009,204.685 615.177,204.73 615.347,204.763C615.517,204.795 615.729,204.812 615.983,204.812C616.316,204.812 616.613,204.754 616.873,204.638C617.134,204.522 617.353,204.361 617.53,204.155C617.708,203.948 617.842,203.706 617.932,203.427C618.023,203.148 618.068,202.842 618.068,202.509Z" style="fill-rule:nonzero; fill:#3b2f30ff;"/>
                <path d="M619.99,202.596C619.99,203.298 620.153,203.845 620.479,204.236C620.805,204.627 621.294,204.822 621.945,204.822C622.213,204.822 622.465,204.792 622.7,204.73C622.936,204.669 623.169,204.584 623.401,204.475L623.509,204.855C623.292,204.964 623.042,205.052 622.76,205.121C622.478,205.19 622.184,205.224 621.88,205.224C621.496,205.224 621.156,205.156 620.859,205.018C620.562,204.88 620.314,204.69 620.115,204.448C619.916,204.205 619.766,203.919 619.665,203.59C619.563,203.26 619.513,202.904 619.513,202.52C619.513,202.129 619.563,201.771 619.665,201.445C619.766,201.119 619.911,200.838 620.099,200.603C620.287,200.368 620.515,200.185 620.783,200.055C621.051,199.924 621.355,199.859 621.696,199.859C622.282,199.859 622.742,200.047 623.075,200.424C623.408,200.8 623.575,201.318 623.575,201.977C623.575,202.078 623.569,202.18 623.558,202.281C623.547,202.382 623.535,202.487 623.52,202.596L619.99,202.596ZM623.097,202.194C623.14,201.586 623.037,201.108 622.787,200.76C622.537,200.413 622.163,200.239 621.663,200.239C621.381,200.239 621.136,200.299 620.93,200.418C620.724,200.538 620.552,200.692 620.414,200.88C620.276,201.068 620.171,201.278 620.099,201.51C620.027,201.742 619.99,201.97 619.99,202.194L623.097,202.194Z" style="fill-rule:nonzero; fill:#3b2f30ff;"/>
                <path d="M627.506,205.029C627.398,205.072 627.256,205.112 627.083,205.148C626.909,205.185 626.739,205.203 626.572,205.203C626.312,205.203 626.094,205.159 625.921,205.072C625.747,204.985 625.607,204.866 625.502,204.714C625.397,204.562 625.321,204.377 625.274,204.16C625.227,203.943 625.204,203.704 625.204,203.443L625.204,200.369L624.259,200.369L624.259,199.968L625.204,199.968L625.204,198.643L625.682,198.643L625.682,199.968L627.495,199.968L627.495,200.369L625.682,200.369L625.682,203.421C625.682,203.878 625.743,204.222 625.866,204.453C625.989,204.685 626.239,204.801 626.616,204.801C626.768,204.801 626.911,204.788 627.045,204.763C627.179,204.737 627.314,204.699 627.452,204.649L627.506,205.029Z" style="fill-rule:nonzero; fill:#3b2f30ff;"/>
                <path d="M629.233,200.739C629.436,200.485 629.684,200.275 629.977,200.109C630.27,199.942 630.602,199.859 630.971,199.859C631.282,199.859 631.55,199.926 631.775,200.06C631.999,200.194 632.184,200.375 632.329,200.603C632.473,200.831 632.58,201.097 632.649,201.401C632.718,201.705 632.752,202.028 632.752,202.368L632.752,205.116L632.274,205.116L632.274,202.444C632.274,202.147 632.251,201.866 632.204,201.602C632.157,201.338 632.079,201.108 631.97,200.913C631.861,200.717 631.715,200.561 631.53,200.446C631.346,200.33 631.119,200.272 630.851,200.272C630.547,200.272 630.261,200.353 629.993,200.516C629.725,200.679 629.472,200.898 629.233,201.173L629.233,205.116L628.755,205.116L628.755,197.448L629.233,197.448L629.233,200.739Z" style="fill-rule:nonzero; fill:#3b2f30ff;"/>
            </g>
            <g id="Maldonado" transform="matrix(3.61963,0,0,3.61963,-1190.81,-630.653)">
                <path d="M454.802,241.614L454.382,248.059L453.613,248.059L454.173,240.296L454.907,240.296L457.693,245.891L460.478,240.296L461.212,240.296L461.772,248.059L461.003,248.059L460.583,241.614L458.124,246.602L457.261,246.602L454.802,241.614Z" style="fill-rule:nonzero; fill:#3b2f30ff;"/>
                <path d="M468.847,247.301C468.761,247.395 468.655,247.494 468.526,247.599C468.398,247.704 468.252,247.799 468.089,247.884C467.926,247.97 467.745,248.04 467.547,248.094C467.349,248.148 467.141,248.176 466.924,248.176C466.419,248.176 466.034,248.036 465.77,247.756C465.506,247.476 465.374,247.115 465.374,246.672C465.374,246.408 465.422,246.179 465.519,245.984C465.616,245.79 465.75,245.629 465.921,245.501C466.092,245.372 466.296,245.273 466.533,245.203C466.77,245.134 467.029,245.091 467.308,245.075C467.557,245.06 467.81,245.048 468.066,245.04C468.322,245.033 468.579,245.025 468.835,245.017L468.835,244.656C468.835,244.096 468.721,243.686 468.491,243.426C468.262,243.166 467.907,243.036 467.425,243.036C467.145,243.036 466.887,243.067 466.65,243.129C466.413,243.191 466.182,243.292 465.956,243.432L465.758,242.837C465.976,242.705 466.232,242.597 466.527,242.511C466.823,242.426 467.157,242.383 467.53,242.383C467.833,242.383 468.113,242.428 468.369,242.517C468.625,242.606 468.845,242.744 469.028,242.931C469.21,243.117 469.354,243.35 469.459,243.63C469.564,243.91 469.616,244.24 469.616,244.621L469.616,248.059L468.847,248.059L468.847,247.301ZM467.099,247.57C467.433,247.57 467.751,247.484 468.054,247.313C468.357,247.142 468.618,246.932 468.835,246.684L468.835,245.576C468.579,245.584 468.328,245.596 468.083,245.611C467.839,245.627 467.611,245.643 467.402,245.658C467.036,245.697 466.735,245.792 466.498,245.944C466.261,246.095 466.143,246.338 466.143,246.672C466.143,247.27 466.461,247.57 467.099,247.57Z" style="fill-rule:nonzero; fill:#3b2f30ff;"/>
                <path d="M474.302,246.73C474.302,246.963 474.344,247.154 474.43,247.301C474.515,247.449 474.69,247.523 474.954,247.523C475.055,247.523 475.149,247.519 475.234,247.511C475.32,247.504 475.405,247.484 475.491,247.453L475.526,248.036C475.308,248.113 475.055,248.152 474.768,248.152C474.333,248.152 474.016,248.022 473.818,247.762C473.62,247.502 473.521,247.173 473.521,246.777L473.521,239.83L474.302,239.83L474.302,246.73Z" style="fill-rule:nonzero; fill:#3b2f30ff;"/>
                <path d="M483.23,248.059L482.496,248.059L482.496,247.255C482.317,247.496 482.068,247.709 481.75,247.896C481.431,248.082 481.058,248.176 480.631,248.176C480.289,248.176 479.986,248.104 479.722,247.96C479.457,247.816 479.234,247.618 479.051,247.366C478.869,247.113 478.729,246.812 478.632,246.462C478.535,246.113 478.486,245.732 478.486,245.32C478.486,244.862 478.554,244.452 478.69,244.09C478.826,243.729 479.018,243.422 479.267,243.17C479.516,242.917 479.813,242.723 480.159,242.587C480.504,242.451 480.883,242.383 481.295,242.383C481.528,242.383 481.734,242.396 481.913,242.424C482.092,242.451 482.27,242.492 482.449,242.546L482.449,239.83L483.23,239.83L483.23,248.059ZM480.841,247.535C481.206,247.535 481.52,247.439 481.785,247.249C482.049,247.059 482.27,246.859 482.449,246.649L482.449,243.199C482.294,243.137 482.125,243.092 481.942,243.065C481.759,243.037 481.567,243.024 481.365,243.024C481.062,243.024 480.782,243.071 480.526,243.164C480.269,243.257 480.048,243.401 479.861,243.595C479.675,243.789 479.529,244.03 479.424,244.318C479.319,244.605 479.267,244.939 479.267,245.32C479.267,245.988 479.391,246.524 479.64,246.929C479.889,247.333 480.289,247.535 480.841,247.535Z" style="fill-rule:nonzero; fill:#3b2f30ff;"/>
                <path d="M492.053,245.285C492.053,245.666 491.997,246.031 491.884,246.381C491.772,246.73 491.604,247.037 491.383,247.301C491.162,247.566 490.888,247.777 490.561,247.937C490.235,248.096 489.862,248.176 489.442,248.176C489.023,248.176 488.65,248.096 488.323,247.937C487.997,247.777 487.723,247.566 487.502,247.301C487.28,247.037 487.113,246.73 487.001,246.381C486.888,246.031 486.832,245.666 486.832,245.285C486.832,244.904 486.888,244.537 487.001,244.184C487.113,243.83 487.28,243.521 487.502,243.257C487.723,242.993 487.997,242.781 488.323,242.622C488.65,242.462 489.023,242.383 489.442,242.383C489.862,242.383 490.235,242.462 490.561,242.622C490.888,242.781 491.162,242.993 491.383,243.257C491.604,243.521 491.772,243.83 491.884,244.184C491.997,244.537 492.053,244.904 492.053,245.285ZM491.272,245.285C491.272,244.974 491.233,244.679 491.156,244.399C491.078,244.12 490.963,243.879 490.812,243.677C490.66,243.475 490.47,243.313 490.241,243.193C490.012,243.072 489.745,243.012 489.442,243.012C489.139,243.012 488.873,243.072 488.644,243.193C488.415,243.313 488.224,243.475 488.073,243.677C487.921,243.879 487.807,244.12 487.729,244.399C487.651,244.679 487.612,244.974 487.612,245.285C487.612,245.604 487.651,245.899 487.729,246.171C487.807,246.443 487.921,246.682 488.073,246.888C488.224,247.094 488.415,247.255 488.644,247.371C488.873,247.488 489.139,247.546 489.442,247.546C489.745,247.546 490.012,247.488 490.241,247.371C490.47,247.255 490.66,247.094 490.812,246.888C490.963,246.682 491.078,246.443 491.156,246.171C491.233,245.899 491.272,245.604 491.272,245.285Z" style="fill-rule:nonzero; fill:#3b2f30ff;"/>
                <path d="M495.655,248.059L495.655,242.499L496.389,242.499L496.389,243.304C496.614,243.008 496.881,242.781 497.188,242.622C497.494,242.462 497.842,242.383 498.231,242.383C498.573,242.383 498.866,242.457 499.111,242.604C499.355,242.752 499.557,242.95 499.717,243.199C499.876,243.447 499.993,243.737 500.066,244.067C500.14,244.397 500.177,244.745 500.177,245.11L500.177,248.059L499.396,248.059L499.396,245.169C499.396,244.858 499.373,244.572 499.326,244.312C499.28,244.052 499.202,243.826 499.093,243.636C498.984,243.445 498.841,243.298 498.662,243.193C498.483,243.088 498.262,243.036 497.998,243.036C497.671,243.036 497.374,243.123 497.106,243.298C496.838,243.473 496.614,243.673 496.436,243.898L496.436,248.059L495.655,248.059Z" style="fill-rule:nonzero; fill:#3b2f30ff;"/>
                <path d="M507.322,247.301C507.237,247.395 507.13,247.494 507.002,247.599C506.873,247.704 506.728,247.799 506.564,247.884C506.401,247.97 506.221,248.04 506.022,248.094C505.824,248.148 505.616,248.176 505.399,248.176C504.894,248.176 504.509,248.036 504.245,247.756C503.981,247.476 503.849,247.115 503.849,246.672C503.849,246.408 503.897,246.179 503.994,245.984C504.092,245.79 504.226,245.629 504.397,245.501C504.567,245.372 504.771,245.273 505.008,245.203C505.245,245.134 505.504,245.091 505.784,245.075C506.032,245.06 506.285,245.048 506.541,245.04C506.798,245.033 507.054,245.025 507.31,245.017L507.31,244.656C507.31,244.096 507.196,243.686 506.967,243.426C506.737,243.166 506.382,243.036 505.9,243.036C505.62,243.036 505.362,243.067 505.125,243.129C504.888,243.191 504.657,243.292 504.431,243.432L504.233,242.837C504.451,242.705 504.707,242.597 505.003,242.511C505.298,242.426 505.632,242.383 506.005,242.383C506.308,242.383 506.588,242.428 506.844,242.517C507.101,242.606 507.32,242.744 507.503,242.931C507.685,243.117 507.829,243.35 507.934,243.63C508.039,243.91 508.091,244.24 508.091,244.621L508.091,248.059L507.322,248.059L507.322,247.301ZM505.574,247.57C505.908,247.57 506.226,247.484 506.529,247.313C506.833,247.142 507.093,246.932 507.31,246.684L507.31,245.576C507.054,245.584 506.803,245.596 506.559,245.611C506.314,245.627 506.087,245.643 505.877,245.658C505.512,245.697 505.21,245.792 504.973,245.944C504.736,246.095 504.618,246.338 504.618,246.672C504.618,247.27 504.937,247.57 505.574,247.57Z" style="fill-rule:nonzero; fill:#3b2f30ff;"/>
                <path d="M516.355,248.059L515.621,248.059L515.621,247.255C515.442,247.496 515.193,247.709 514.875,247.896C514.556,248.082 514.183,248.176 513.756,248.176C513.414,248.176 513.111,248.104 512.847,247.96C512.583,247.816 512.359,247.618 512.177,247.366C511.994,247.113 511.854,246.812 511.757,246.462C511.66,246.113 511.611,245.732 511.611,245.32C511.611,244.862 511.679,244.452 511.815,244.09C511.951,243.729 512.144,243.422 512.392,243.17C512.641,242.917 512.938,242.723 513.284,242.587C513.63,242.451 514.008,242.383 514.42,242.383C514.653,242.383 514.859,242.396 515.038,242.424C515.217,242.451 515.396,242.492 515.574,242.546L515.574,239.83L516.355,239.83L516.355,248.059ZM513.966,247.535C514.331,247.535 514.646,247.439 514.91,247.249C515.174,247.059 515.396,246.859 515.574,246.649L515.574,243.199C515.419,243.137 515.25,243.092 515.067,243.065C514.885,243.037 514.692,243.024 514.49,243.024C514.187,243.024 513.907,243.071 513.651,243.164C513.395,243.257 513.173,243.401 512.987,243.595C512.8,243.789 512.654,244.03 512.55,244.318C512.445,244.605 512.392,244.939 512.392,245.32C512.392,245.988 512.517,246.524 512.765,246.929C513.014,247.333 513.414,247.535 513.966,247.535Z" style="fill-rule:nonzero; fill:#3b2f30ff;"/>
                <path d="M525.178,245.285C525.178,245.666 525.122,246.031 525.009,246.381C524.897,246.73 524.73,247.037 524.508,247.301C524.287,247.566 524.013,247.777 523.687,247.937C523.36,248.096 522.987,248.176 522.568,248.176C522.148,248.176 521.775,248.096 521.449,247.937C521.122,247.777 520.848,247.566 520.627,247.301C520.405,247.037 520.238,246.73 520.126,246.381C520.013,246.031 519.957,245.666 519.957,245.285C519.957,244.904 520.013,244.537 520.126,244.184C520.238,243.83 520.405,243.521 520.627,243.257C520.848,242.993 521.122,242.781 521.449,242.622C521.775,242.462 522.148,242.383 522.568,242.383C522.987,242.383 523.36,242.462 523.687,242.622C524.013,242.781 524.287,242.993 524.508,243.257C524.73,243.521 524.897,243.83 525.009,244.184C525.122,244.537 525.178,244.904 525.178,245.285ZM524.398,245.285C524.398,244.974 524.359,244.679 524.281,244.399C524.203,244.12 524.089,243.879 523.937,243.677C523.786,243.475 523.595,243.313 523.366,243.193C523.137,243.072 522.871,243.012 522.568,243.012C522.265,243.012 521.998,243.072 521.769,243.193C521.54,243.313 521.35,243.475 521.198,243.677C521.047,243.879 520.932,244.12 520.854,244.399C520.777,244.679 520.738,244.974 520.738,245.285C520.738,245.604 520.777,245.899 520.854,246.171C520.932,246.443 521.047,246.682 521.198,246.888C521.35,247.094 521.54,247.255 521.769,247.371C521.998,247.488 522.265,247.546 522.568,247.546C522.871,247.546 523.137,247.488 523.366,247.371C523.595,247.255 523.786,247.094 523.937,246.888C524.089,246.682 524.203,246.443 524.281,246.171C524.359,245.899 524.398,245.604 524.398,245.285Z" style="fill-rule:nonzero; fill:#3b2f30ff;"/>
            </g>
            <g id="me">
                <g transform="matrix(1,0,0,1,479.5,108.5)">
                    <path d="M0,76C2.761,76 5,76.896 5,78C5,79.104 2.761,80 0,80C-2.761,80 -5,79.104 -5,78C-5,76.896 -2.761,76 0,76M12,67.5C14.5,65.5 35.764,21.992 41.264,12.492C46.764,2.992 49.189,-5.803 42.574,-9.195C32.636,-14.292 14,-12.5 0,41C0,41 3.5,-25.5 -11,-26.5C-11,-26.5 -34,-32.5 -39,28.5C-39,28.5 -43,57 -17.5,77.5C-17.5,77.5 -23,94.5 -13.5,100.5C-4,106.5 14.5,108.5 25,105C25,105 38,100.5 30,96C30,96 23,96 19,99C15,102 -9.5,100 -11.5,95C-13.5,90 -9.5,84.5 -9.5,84.5L11.5,88C11.5,88 24.654,87.369 9.654,73.369C9.654,73.369 -1.054,65.318 -12,70.5C-12,70.5 -37,56 -30.5,14C-30.5,14 -23,-20.5 -15.5,-17.5C-8,-14.5 -9.5,64.5 -9.5,64.5L-2,66C-2,66 26.586,-24.096 39.076,-1.766L4,68C4,68 9.5,69.5 12,67.5" style="fill:rgb(51,53,53);fill-rule:nonzero; fill:#3b2f30ff;"/>
                </g>
                <g transform="matrix(1,0,0,1,-5,-6)">
                    <ellipse cx="529.925" cy="206.467" rx="5.854" ry="5.366" style="fill:rgb(245,131,69);"/>
                </g>
            </g>
        </g>
    </g>
</svg>
